{
	"patcher" : 	{
		"fileversion" : 1,
		"rect" : [ 62.0, 60.0, 273.0, 204.0 ],
		"bglocked" : 0,
		"defrect" : [ 62.0, 60.0, 273.0, 204.0 ],
		"openrect" : [ 0.0, 0.0, 0.0, 0.0 ],
		"openinpresentation" : 0,
		"default_fontsize" : 10.0,
		"default_fontface" : 0,
		"default_fontname" : "Arial Bold",
		"gridonopen" : 0,
		"gridsize" : [ 8.0, 8.0 ],
		"gridsnaponopen" : 0,
		"toolbarvisible" : 1,
		"boxanimatetime" : 200,
		"imprint" : 0,
		"enablehscroll" : 1,
		"enablevscroll" : 1,
		"devicewidth" : 0.0,
		"boxes" : [ 			{
				"box" : 				{
					"maxclass" : "message",
					"text" : "id 0",
					"fontname" : "Arial Bold",
					"numinlets" : 2,
					"numoutlets" : 1,
					"fontsize" : 10.0,
					"outlettype" : [ "" ],
					"patching_rect" : [ 168.0, 136.0, 32.5, 16.0 ],
					"id" : "obj-3"
				}

			}
, 			{
				"box" : 				{
					"maxclass" : "comment",
					"text" : "Helper patch to seperate valid ids (id > 0) and id 0",
					"fontname" : "Arial Bold",
					"numinlets" : 1,
					"numoutlets" : 0,
					"fontsize" : 10.0,
					"patching_rect" : [ 16.0, 16.0, 246.0, 18.0 ],
					"frgb" : [ 0.0, 0.0, 0.0, 1.0 ],
					"id" : "obj-2"
				}

			}
, 			{
				"box" : 				{
					"maxclass" : "outlet",
					"prototypename" : "M4L.Arial10",
					"numinlets" : 1,
					"numoutlets" : 0,
					"patching_rect" : [ 96.0, 168.0, 18.0, 18.0 ],
					"id" : "obj-1",
					"comment" : "id > 0"
				}

			}
, 			{
				"box" : 				{
					"maxclass" : "outlet",
					"prototypename" : "M4L.Arial10",
					"numinlets" : 1,
					"numoutlets" : 0,
					"patching_rect" : [ 168.0, 168.0, 18.0, 18.0 ],
					"id" : "obj-52",
					"comment" : "id 0"
				}

			}
, 			{
				"box" : 				{
					"maxclass" : "inlet",
					"prototypename" : "M4L.Arial10",
					"numinlets" : 0,
					"numoutlets" : 1,
					"outlettype" : [ "" ],
					"patching_rect" : [ 64.0, 48.0, 18.0, 18.0 ],
					"id" : "obj-51",
					"comment" : "id in"
				}

			}
, 			{
				"box" : 				{
					"maxclass" : "newobj",
					"text" : "prepend id",
					"fontname" : "Arial Bold",
					"numinlets" : 1,
					"numoutlets" : 1,
					"fontsize" : 10.0,
					"outlettype" : [ "" ],
					"patching_rect" : [ 96.0, 136.0, 62.0, 18.0 ],
					"id" : "obj-24"
				}

			}
, 			{
				"box" : 				{
					"maxclass" : "newobj",
					"text" : "route 0",
					"fontname" : "Arial Bold",
					"numinlets" : 1,
					"numoutlets" : 2,
					"fontsize" : 10.0,
					"outlettype" : [ "", "" ],
					"patching_rect" : [ 64.0, 104.0, 51.0, 18.0 ],
					"id" : "obj-21"
				}

			}
, 			{
				"box" : 				{
					"maxclass" : "newobj",
					"text" : "route id",
					"fontname" : "Arial Bold",
					"numinlets" : 1,
					"numoutlets" : 2,
					"fontsize" : 10.0,
					"outlettype" : [ "", "" ],
					"patching_rect" : [ 64.0, 80.0, 47.0, 18.0 ],
					"id" : "obj-5"
				}

			}
 ],
		"lines" : [ 			{
				"patchline" : 				{
					"source" : [ "obj-5", 0 ],
					"destination" : [ "obj-21", 0 ],
					"hidden" : 0,
					"midpoints" : [  ]
				}

			}
, 			{
				"patchline" : 				{
					"source" : [ "obj-21", 1 ],
					"destination" : [ "obj-24", 0 ],
					"hidden" : 0,
					"midpoints" : [  ]
				}

			}
, 			{
				"patchline" : 				{
					"source" : [ "obj-51", 0 ],
					"destination" : [ "obj-5", 0 ],
					"hidden" : 0,
					"midpoints" : [  ]
				}

			}
, 			{
				"patchline" : 				{
					"source" : [ "obj-24", 0 ],
					"destination" : [ "obj-1", 0 ],
					"hidden" : 0,
					"midpoints" : [  ]
				}

			}
, 			{
				"patchline" : 				{
					"source" : [ "obj-21", 0 ],
					"destination" : [ "obj-3", 0 ],
					"hidden" : 0,
					"midpoints" : [  ]
				}

			}
, 			{
				"patchline" : 				{
					"source" : [ "obj-3", 0 ],
					"destination" : [ "obj-52", 0 ],
					"hidden" : 0,
					"midpoints" : [  ]
				}

			}
 ]
	}

}
